# xmcd
#
# Track frame offsets:
#	150
#	17675
#	34250
#	46493
#	57779
#	74464
#	89316
#	107783
#	124555
#	131854
#	143955
#	160614
#
# Disc length: 2364 seconds
#
# Revision: 0
# Processed by: cddbd v1.5.2PL0 Copyright (c) Steve Scherf et al.
# Submitted via: audiograbber 1.83.01
#
DISCID=a5093a0c
DTITLE=Los Cebolleros - Los Cebolleros
DYEAR=1900
DGENRE=Folklore
TTITLE0=El Caracol
TTITLE1=De La Isleta Al Refugio
TTITLE2=Taya
TTITLE3=Noche Canaria
TTITLE4=Isa Del Pino
TTITLE5=El Tanganillo
TTITLE6=Isa Cebollera
TTITLE7=De Belingo
TTITLE8=Virgen De La Pena
TTITLE9=Folias De Las Palmas
TTITLE10=Isa De La Novia
TTITLE11=De Galdar Vengo
EXTD=
EXTT0=
EXTT1=
EXTT2=
EXTT3=
EXTT4=
EXTT5=
EXTT6=
EXTT7=
EXTT8=
EXTT9=
EXTT10=
EXTT11=
PLAYORDER=
